<svg version="1.1" xmlns="http://www.w3.org/2000/svg" viewBox="0 0 512 512">
    <g>
        <path d="M396.8,296.4c-59-19.3-83.5-43.2-83.5-43.2l-2,1.9c-17.5,16.5-36.9,26.2-54.6,26.2h-1.7 c-17.7,0-37-9.7-54.6-26.2l-2-1.9c0,0-24.5,24-83.5,43.2c-87.1,32.5-60.9,165-61,166c2.7,14.7,4.3,19.8,5.7,20.4 c87.5,38.9,304.8,38.9,392.3,0c1.4-0.6,3-5.6,5.7-20.4C457.8,461.4,484.3,329.5,396.8,296.4z"/>
        <path d="M347.4,127.5l-0.7-0.8c-4.9-4.5-4.5-4.2-4.5-4.2s8.5-43.1,1.7-63.5c-10.8-32.6-75-54.4-87.9-56.9 c0,0-7.8-1.6-8.3-1.6c0,0-10.1-2.1-21.9,3.1c-7.7,2.9-47.7,21.1-59,55.5c-6.9,20.4,1.7,63.5,1.7,63.5s0.4-0.3-4.5,4.2l-0.7,0.8 c-3.3,3.8-2.5,15.5,1.1,27.8c3.3,12.3,7.6,15.6,8.6,18.5c10.4,48.8,46.5,90.5,83.4,90.5c36.8,0,71.1-41.7,81.5-90.5 c1-2.9,5.3-6.2,8.6-18.5C349.9,143,350.8,130.5,347.4,127.5z"/>
    </g>
</svg>
