<?xml version="1.0" standalone="no"?>
<!DOCTYPE svg PUBLIC "-//W3C//DTD SVG 20010904//EN"
 "http://www.w3.org/TR/2001/REC-SVG-20010904/DTD/svg10.dtd">
<svg version="1.0" xmlns="http://www.w3.org/2000/svg"
 width="128.000000pt" height="128.000000pt" viewBox="0 0 128.000000 128.000000"
 preserveAspectRatio="xMidYMid meet">
<metadata>
Created by potrace 1.11, written by Peter Selinger 2001-2013
</metadata>
<g transform="translate(0.000000,128.000000) scale(0.100000,-0.100000)"
fill="#000000" stroke="none">
<path d="M535 1253 c-33 -8 -64 -16 -70 -17 -16 -5 -118 -55 -139 -68 -11 -7
-37 -29 -57 -49 -21 -20 -40 -34 -43 -31 -3 3 -9 -4 -13 -14 -6 -16 -47 -75
-81 -119 -10 -12 -12 -20 -12 -41 0 -9 -5 -12 -12 -8 -8 5 -9 2 -4 -11 4 -10
2 -21 -3 -24 -20 -13 -46 -217 -29 -227 5 -3 4 -12 -3 -20 -9 -11 -9 -14 0
-14 7 0 9 -4 6 -10 -5 -9 8 -74 22 -110 3 -8 8 -24 10 -34 2 -11 10 -27 18
-36 8 -9 12 -20 8 -23 -3 -4 -1 -7 5 -7 7 0 12 -7 12 -15 0 -8 5 -15 12 -15 6
0 9 -3 5 -6 -6 -6 18 -38 68 -89 17 -18 35 -40 41 -51 6 -10 21 -20 33 -22 12
-2 19 -8 16 -13 -4 -5 4 -9 15 -9 16 0 20 -5 16 -15 -3 -8 -1 -15 3 -15 5 0
12 6 14 13 3 7 6 5 6 -5 1 -10 6 -18 12 -18 5 0 7 5 4 10 -3 6 -1 10 4 10 6 0
11 -3 12 -7 0 -5 2 -16 4 -26 3 -14 -1 -18 -16 -14 -10 3 -21 2 -24 -2 -5 -9
24 -11 45 -4 8 3 23 8 34 10 16 3 17 1 6 -12 -7 -8 -16 -13 -20 -10 -5 3 -11
1 -14 -4 -4 -5 2 -8 11 -6 10 1 25 -3 33 -9 13 -10 13 -9 0 8 -14 18 -13 19 2
13 10 -3 20 -1 24 5 5 7 2 8 -6 3 -9 -5 -11 -4 -6 4 6 8 12 9 20 2 7 -6 17 -7
21 -3 5 4 4 1 0 -7 -6 -11 -4 -13 10 -7 16 6 16 4 4 -10 -12 -15 -11 -16 10
-9 16 5 21 4 17 -4 -5 -7 -1 -8 11 -4 16 6 17 5 3 -13 -14 -18 -14 -18 3 -5
14 11 15 17 5 30 -10 13 -10 14 2 4 11 -10 17 -10 28 0 13 10 14 9 4 -10 -9
-16 -9 -24 0 -29 6 -4 8 -3 4 4 -10 17 37 10 51 -8 10 -13 11 -12 7 6 -4 14
-1 21 9 21 8 0 13 -6 11 -12 -6 -14 41 -14 53 -1 4 5 2 6 -4 2 -7 -4 -13 -2
-13 3 0 6 4 11 8 11 15 0 30 -22 25 -36 -3 -8 0 -14 7 -14 6 0 8 5 5 10 -7 11
6 13 29 4 9 -3 13 -11 10 -16 -4 -6 2 -5 14 1 12 6 23 7 26 2 3 -4 42 -9 86
-10 59 -2 80 1 81 11 1 7 2 59 3 114 l2 101 42 41 c23 22 42 45 42 50 0 5 7
13 16 16 8 3 12 10 9 16 -3 5 -2 10 3 10 20 0 99 210 84 224 -3 3 -1 6 4 6 10
0 10 147 0 190 -3 14 -9 39 -12 55 -3 17 -22 64 -42 105 -74 153 -247 287
-407 315 -77 13 -181 12 -240 -2z m-85 -1131 c0 -5 -7 -9 -15 -9 -8 0 -12 4
-9 9 3 4 9 8 15 8 5 0 9 -4 9 -8z"/>
<path d="M504 82 c4 -7 2 -12 -3 -12 -6 0 -11 -5 -11 -11 0 -5 4 -8 9 -4 5 3
12 1 16 -5 3 -5 12 -10 18 -10 7 0 4 5 -6 11 -9 6 -15 14 -12 19 3 5 0 12 -6
16 -8 4 -9 3 -5 -4z"/>
</g>
</svg>
