<svg version="1.1" xmlns="http://www.w3.org/2000/svg" viewBox="0 0 512 341.4">
    <g fill="#F0F0F0">
        <rect width="512" height="341.3"/>
        <polygon points="311.7,230.1 512,341.4 512,309.9 368.3,230.1"/>
        <polygon points="200.3,111.3 0,0 0,31.5 143.7,111.3"/>
    </g>

    <g fill="#0052B4">
        <polygon points="393.8,230.1 512,295.7 512,230.1"/>
        <polygon points="311.7,230.1 512,341.4 512,309.9 368.3,230.1"/>
        <polygon points="458.6,341.4 311.7,259.7 311.7,341.4"/>

        <polygon points="90.3,230.1 0,280.2 0,230.1"/>
        <polygon points="200.3,244.2 200.3,341.4 25.5,341.4"/>

        <polygon points="118.2,111.3 0,45.7 0,111.3"/>
        <polygon points="200.3,111.3 0,0 0,31.5 143.7,111.3"/>
        <polygon points="53.4,0 200.3,81.7 200.3,0"/>

        <polygon points="421.7,111.3 512,61.1 512,111.3"/>
        <polygon points="311.7,97.2 311.7,0 486.5,0"/>
    </g>

    <g fill="#D80027">
        <polygon points="288,0 224,0 224,138.7 0,138.7 0,202.7 224,202.7 224,341.4 288,341.4 288,202.7 512,202.7 512,138.7 288,138.7"/>
        <polygon points="311.7,230.1 512,341.4 512,309.9 368.3,230.1"/>
        <polygon points="143.7,230.1 0,309.9 0,341.4 0,341.4 200.3,230.1"/>
        <polygon points="200.3,111.3 0,0 0,31.5 143.7,111.3"/>
        <polygon points="368.3,111.3 512,31.5 512,0 512,0 311.7,111.3"/>
    </g>
</svg>
